<?xml version="1.0" standalone="no"?>
<!DOCTYPE svg PUBLIC "-//W3C//DTD SVG 20010904//EN"
 "http://www.w3.org/TR/2001/REC-SVG-20010904/DTD/svg10.dtd">
<svg version="1.0" xmlns="http://www.w3.org/2000/svg"
 width="260.000000pt" height="260.000000pt" viewBox="0 0 260.000000 260.000000"
 preserveAspectRatio="xMidYMid meet">
<metadata>
Created by potrace 1.11, written by Peter Selinger 2001-2013
</metadata>
<g transform="translate(0.000000,260.000000) scale(0.100000,-0.100000)"
fill="#000000" stroke="none">
<path d="M45 2555 l-25 -24 0 -1236 0 -1236 25 -24 24 -25 1231 0 1231 0 24
25 25 24 0 1236 0 1236 -25 24 -24 25 -1231 0 -1231 0 -24 -25z m1418 -120
c191 -29 331 -91 442 -197 110 -104 173 -226 194 -379 5 -40 9 -74 8 -75 -1
-1 -65 -5 -143 -9 l-141 -7 -11 58 c-26 131 -107 246 -209 298 -95 48 -165 60
-333 60 -218 0 -311 -28 -410 -120 -149 -139 -122 -362 54 -451 81 -41 143
-60 451 -137 160 -41 326 -88 370 -105 225 -87 363 -222 419 -410 21 -71 21
-237 1 -315 -23 -89 -83 -193 -153 -268 -145 -154 -341 -233 -607 -245 -373
-17 -680 91 -840 295 -89 113 -145 250 -160 395 l-7 65 71 6 c39 3 102 9 139
12 l68 6 22 -88 c29 -119 64 -186 131 -253 65 -65 165 -118 286 -153 106 -29
334 -32 435 -5 156 42 267 121 317 226 22 45 27 70 27 131 1 136 -63 227 -207
296 -65 30 -143 53 -587 170 -352 93 -525 220 -590 433 -24 76 -27 230 -6 307
65 245 277 412 581 460 111 17 272 17 388 -1z"/>
</g>
</svg>
